<svg height="512" viewBox="0 0 512 512" width="512" xmlns="http://www.w3.org/2000/svg"><path d="m330.666667 213.333333c53.019336 0 96 42.980664 96 96s-42.980664 96-96 96-96-42.980664-96-96 42.980664-96 96-96zm-32 42.666667v106.666667l96-53.333334zm-80.91642 21.332553c-2.877269 10.172643-4.416914 20.90691-4.416914 32.00078 0 3.596138.161781 7.154489.478462 10.668173l-213.811795-.001506v-42.666667zm-132.4169137-170.665886v149.333333h-64v-149.333333zm106.6666667 64v85.333333h-64v-85.333333zm106.666667-21.333334-.000781 47.083581c-26.216906 7.415289-48.703536 23.715004-64.00178 45.441035l.002561-92.524616zm106.666666 21.333334.001872 48.154337c-17.715118-14.630834-39.798143-24.161251-64.000365-26.342543l-.001507-21.811794zm-138.666666-170.666667c17.673112 0 32 14.326888 32 32 0 .4356001-.008704.8691674-.025947 1.3005374l50.64228 20.2566975c5.864737-6.6764844 14.465409-10.8905682 24.050333-10.8905682 17.673112 0 32 14.326888 32 32s-14.326888 32.0000003-32 32.0000003-32-14.3268883-32-32.0000003c0-.4359368.008717-.8698376.025987-1.3015375l-50.641238-20.2569297c-5.864761 6.6771982-14.465902 10.8918005-24.051415 10.8918005-7.749266 0-14.855177-2.754526-20.392032-7.3378761l-54.911325 32.9547779c.417535 2.0626635.63669 4.1972877.63669 6.3830982 0 17.673112-14.326888 32-32 32s-32-14.326888-32-32c0-2.1843966.218871-4.3176732.63588-6.3790955l-54.9196398-32.9512296c-5.5355367 4.5788243-12.6378981 7.3303251-20.3829069 7.3303251-17.673112 0-32-14.326888-32-32s14.326888-32 32-32 32 14.326888 32 32c0 2.1847501-.2189421 4.3183635-.6360823 6.3800962l54.917848 32.9518787c5.535825-4.5798132 12.638962-7.3319749 20.384901-7.3319749 7.745554 0 14.848371 2.7518885 20.384077 7.3312928l54.918672-32.9511966c-.41714-2.0617327-.636082-4.1953461-.636082-6.3800962 0-17.673112 14.326888-32 32-32z" fill-rule="evenodd" transform="translate(42.666667 64)"/></svg>